<?xml version="1.0" encoding="UTF-8" standalone="no"?>
<!-- Created with Inkscape (http://www.inkscape.org/) -->

<svg
   xmlns:dc="http://purl.org/dc/elements/1.1/"
   xmlns:cc="http://creativecommons.org/ns#"
   xmlns:rdf="http://www.w3.org/1999/02/22-rdf-syntax-ns#"
   xmlns:svg="http://www.w3.org/2000/svg"
   xmlns="http://www.w3.org/2000/svg"
   xmlns:sodipodi="http://sodipodi.sourceforge.net/DTD/sodipodi-0.dtd"
   xmlns:inkscape="http://www.inkscape.org/namespaces/inkscape"
   width="850.75201mm"
   height="746.41998mm"
   viewBox="0 0 850.75201 746.41998"
   version="1.1"
   id="svg8"
   inkscape:version="0.92.4 (5da689c313, 2019-01-14)"
   sodipodi:docname="55.svg">
  <defs
     id="defs2" />
  <sodipodi:namedview
     id="base"
     pagecolor="#ffffff"
     bordercolor="#666666"
     borderopacity="1.0"
     inkscape:pageopacity="0.0"
     inkscape:pageshadow="2"
     inkscape:zoom="0.175"
     inkscape:cx="2600.2951"
     inkscape:cy="979.31414"
     inkscape:document-units="mm"
     inkscape:current-layer="layer1"
     showgrid="false"
     inkscape:window-width="1920"
     inkscape:window-height="1057"
     inkscape:window-x="-8"
     inkscape:window-y="-8"
     inkscape:window-maximized="1" />
  <metadata
     id="metadata5">
    <rdf:RDF>
      <cc:Work
         rdf:about="">
        <dc:format>image/svg+xml</dc:format>
        <dc:type
           rdf:resource="http://purl.org/dc/dcmitype/StillImage" />
        <dc:title></dc:title>
      </cc:Work>
    </rdf:RDF>
  </metadata>
  <g
     inkscape:label="Layer 1"
     inkscape:groupmode="layer"
     id="layer1"
     transform="translate(0,449.42004)">
    <path
       sodipodi:nodetypes="cccc"
       inkscape:connector-curvature="0"
       id="path852"
       d="M 35.997938,260.99947 425.37574,-413.42318 814.75394,260.99918 Z"
       style="opacity:1;vector-effect:none;fill:none;fill-opacity:1;fill-rule:nonzero;stroke:#ffcd00;stroke-width:70.00099945;stroke-linecap:square;stroke-linejoin:round;stroke-miterlimit:4;stroke-dasharray:none;stroke-dashoffset:0;stroke-opacity:1" />
    <path
       style="opacity:1;vector-effect:none;fill:#e4002b;fill-opacity:1;fill-rule:nonzero;stroke:#e4002b;stroke-width:50;stroke-linecap:square;stroke-linejoin:round;stroke-miterlimit:4;stroke-dasharray:none;stroke-dashoffset:0;stroke-opacity:1"
       d="m 814.75424,260.99963 -778.756069,3.4e-4 389.377769,-674.4227 z"
       id="path863"
       inkscape:connector-curvature="0"
       sodipodi:nodetypes="cccc" />
    <path
       style="opacity:1;vector-effect:none;fill:#ffcd00;fill-opacity:1;fill-rule:nonzero;stroke:none;stroke-width:70.00099945;stroke-linecap:square;stroke-linejoin:round;stroke-miterlimit:4;stroke-dasharray:none;stroke-dashoffset:0;stroke-opacity:1"
       d="m 105.27898,220.99995 320.0968,-554.42422 320.09705,554.42409 z"
       id="rect888"
       inkscape:connector-curvature="0"
       sodipodi:nodetypes="cccc" />
    <path
       inkscape:connector-curvature="0"
       style="fill:#000000;stroke:none;stroke-width:2.13838267"
       d="m 395.5826,62.477774 c 5.16201,2.005816 10.38182,3.840618 15.6615,5.497847 3.06859,0.957975 6.18204,1.742746 9.33615,2.360782 4.62317,0.908833 9.25064,1.774832 13.88877,2.610925 2.8077,0.509173 5.65816,0.757285 8.50863,0.72739 4.71078,-0.0323 9.4067,0.03229 14.10682,0.205278 10.99337,0.384712 21.89914,2.232522 32.42853,5.48072 1.68502,0.626355 3.3572,1.280846 5.01661,1.97801 4.71087,1.956594 9.01537,4.768598 12.70839,8.296913 6.23974,5.970405 12.74047,11.654211 19.47201,17.051521 3.69301,2.95312 7.86716,5.2262 12.34486,6.73166 3.14133,1.06279 6.38313,1.83262 9.65693,2.31155 1.65722,0.23924 3.32948,0.21984 4.97175,-0.0566 1.70216,-0.29257 3.38929,-0.57706 5.09145,-0.84466 0.5221,-0.0816 1.03071,-0.23276 1.51184,-0.45098 0.63928,-0.28449 1.36642,-0.32732 2.05074,-0.11799 0.40653,0.19073 0.72738,0.51563 0.91521,0.93235 4.69802,10.61494 11.21151,20.34465 19.25396,28.71431 3.84052,4.23615 7.67893,8.49154 11.50449,12.7533 8.42094,9.37257 20.50271,14.60734 33.0978,14.32932 1.33862,-0.0242 2.55959,-0.78477 3.16905,-1.97793 0.49381,-0.95158 0.45098,-2.09351 -0.1172,-3.00872 -3.16905,-5.1407 -7.67673,-9.32771 -13.0441,-12.1204 -1.62942,-0.85113 -3.25676,-1.69579 -4.90113,-2.52541 -1.86041,-0.9431 -3.83841,-1.61456 -5.9041,-1.98448 l -1.10554,-0.19639 c -0.84466,-0.29096 -1.5567,-0.8639 -2.02076,-1.62306 -0.68455,-1.08202 -1.30865,-2.20891 -1.86251,-3.36578 -0.68212,-1.43918 -1.46908,-2.80772 -2.36933,-4.11427 -1.04566,-1.49899 -1.99296,-3.06215 -2.85047,-4.67663 -2.64517,-5.00387 -4.89902,-10.20227 -6.73163,-15.55893 -1.80261,-5.24333 -3.12629,-10.63854 -3.956,-16.12135 -0.14547,-0.96654 -0.30549,-1.93307 -0.48087,-2.89323 -0.23115,-1.338627 -0.80013,-2.595963 -1.61448,-3.680168 -0.63928,-0.844662 -1.55668,-1.447671 -2.57243,-1.702093 -3.01081,-0.757295 -6.01952,-1.481935 -9.04537,-2.183299 -2.55748,-0.59484 -5.07439,-1.402807 -7.51849,-2.414284 -0.95804,-0.400059 -1.87535,-0.92378 -2.71792,-1.556774 -2.21108,-1.644381 -3.72291,-4.054386 -4.24469,-6.761565 -1.18038,-6.079429 -2.58957,-12.098977 -4.23185,-18.060814 -0.59483,-2.181119 -1.29369,-4.332323 -2.09342,-6.457921 -0.34832,-0.92378 -0.78476,-1.802627 -1.30662,-2.645189 l -1.49897,-2.405716 c 1.6872,0.378243 3.46203,-0.181842 4.64031,-1.471187 1.69998,-1.868977 2.22385,-4.514086 1.38139,-6.885616 -1.80271,-5.104337 -5.03166,-9.590627 -9.27846,-12.943639 -5.03155,-3.956031 -10.56995,-7.197839 -16.47405,-9.656977 -5.19409,-2.166162 -10.57214,-3.831969 -16.06989,-4.986734 -3.18407,-0.669199 -6.38303,-1.308652 -9.56923,-1.905271 -7.15713,-1.332259 -14.39559,-2.11703 -21.66823,-2.343645 -9.10516,-0.282068 -18.19328,-1.148386 -27.1937,-2.572541 -5.67101,-0.9088218 -11.17093,-2.7050701 -16.28801,-5.3374112 -9.67188,-4.97170663 -17.68442,-12.6357153 -23.07742,-22.0745448 -1.45405,-2.523317 -2.53178,-5.241246 -3.22895,-8.070297 -2.22604,-9.160822 -4.28955,-18.366647 -6.17986,-27.600198 -0.90243,-4.449925 -2.08065,-8.84222 -3.53476,-13.144648 -0.55201,-1.64866 -1.25095,-3.243908 -2.07847,-4.762208 l -0.7573,-1.38996 c 2.80764,-0.836093 5.71589,-1.306552 8.63901,-1.415585 1.6872,-0.06469 3.37433,-0.292566 5.01662,-0.675658 0.71202,-0.175383 1.3964,-0.450981 2.02083,-0.829714 l 1.30864,-0.79366 1.49687,-0.98795 1.46909,-0.829634 1.10764,-0.560086 c -0.23276,-0.58838 -0.58191,-1.126969 -1.01995,-1.584579 -1.91819,-2.020764 -4.25965,-3.586107 -6.86207,-4.595394 -4.27678,-1.657239 -8.76952,-2.675095 -13.34995,-3.002335 l -1.13335,-0.08079 c -1.67217,-3.374429 -4.28955,-6.182153 -7.53345,-8.085245 l -1.27874,-0.741937 c -0.11557,-4.450003 0.6991,-8.885063 2.41419,-13.003613 1.13335,-2.71785 2.47198,-5.35018 3.99876,-7.87568 0.90027,-1.47329 1.64446,-3.02367 2.2389,-4.64454 3.02585,-8.23921 3.28673,-17.24614 0.74193,-25.65209 -0.23276,-0.7573 -0.75729,-1.39643 -1.45412,-1.78129 -0.71204,-0.38067 -1.4391,-0.70557 -2.1811,-0.99006 -0.6692,-0.25459 -1.39635,-0.33379 -2.0935,-0.24569 -0.71204,0.0857 -1.32369,0.56008 -1.59952,1.22103 -0.32086,0.83609 -0.66919,1.66363 -1.01786,2.49333 -0.26267,0.60939 -0.34834,1.29371 -0.24812,1.94811 0.3338,2.29022 0.62474,4.58255 0.84466,6.89411 0.552,5.73731 -1.3236,11.44465 -5.15991,15.74708 l -0.67566,0.76375 c -2.88683,-1.42414 -5.67741,-3.05358 -8.33963,-4.87124 l -3.94743,-2.69861 c -0.46634,-0.37824 -1.03929,-0.57948 -1.63591,-0.58837 -1.42631,-0.006 -2.64727,1.01138 -2.89539,2.40781 -0.17537,1.00291 0.0728,2.02077 0.67566,2.82695 3.11136,4.12495 6.94977,7.6426 11.33557,10.37758 l 0.88102,0.53908 -0.36368,2.52978 -0.86608,4.81345 -1.27227,6.00679 -0.2756,0.76294 h -3.88335 c -3.10489,0.118002 -6.17348,0.750826 -9.07527,1.868987 -3.94105,1.511841 -7.73663,3.395775 -11.32699,5.613259 -2.87181,1.766343 -5.97677,3.111369 -9.22066,3.998774 -2.21748,0.59485 -4.44351,1.19325 -6.66106,1.781301 -2.48694,0.65465 -4.9076,1.518219 -7.25551,2.581018 -1.16972,0.523721 -2.34154,1.054231 -3.51974,1.58457 -1.15687,0.515642 -2.33297,0.972923 -3.53259,1.381391 -1.14838,0.3936 -2.12347,1.193249 -2.72648,2.247469 -0.50917,0.895985 -0.53665,1.971552 -0.0808,2.895332 0.56655,1.141927 1.51829,2.057138 2.69011,2.57464 1.2937,0.575442 2.33508,1.605906 2.92312,2.886842 0.44451,0.960155 1.0607,1.817585 1.83899,2.531797 0.99652,0.915301 2.12348,1.685114 3.3509,2.268886 2.79914,1.323609 5.72226,2.384298 8.72458,3.16907 2.77134,0.784771 5.62819,1.193239 8.50855,1.206007 l 2.8655,0.378242 c 4.15054,3.337995 9.02393,5.651734 14.2287,6.761566 1.95666,7.25764 2.74143,14.78264 2.31802,22.294792 -0.21822,3.03224 -0.35724,6.077329 -0.41462,9.118138 -0.0728,3.650197 -0.31843,7.291905 -0.74194,10.920685 -0.59645,5.0445253 -0.75727,10.1338242 -0.48087,15.2104249 0.10263,1.8668071 0.19639,3.7357139 0.29903,5.6132603 0.0808,1.5909588 0.31843,3.1754588 0.70557,4.7258438 1.62942,6.457921 3.65664,12.817477 6.08586,19.027356 l 1.05422,2.713569 c -5.84421,-1.7834 -11.90227,-2.807644 -18.00948,-3.040729 l -5.01661,-0.202859 h -3.9838 l -4.82847,-0.0162 h -3.97735 l -5.42508,-0.166495 -3.43205,-0.168914 -6.32533,-0.245693 c -0.80579,0.008 -1.60591,0.118002 -2.38429,0.318432 -1.65722,0.429975 -3.24398,1.126889 -4.68945,2.065627 -0.45745,0.290956 -0.96661,0.493815 -1.50544,0.611817 -0.74194,0.143049 -1.46269,0.393591 -2.14482,0.72738 -1.28731,0.624755 -2.35649,1.629513 -3.07499,2.865436 -1.0029,1.757774 -1.38138,3.802054 -1.06917,5.801481 0.26913,1.744925 0.8066,3.43215 1.59952,5.003792 0.91732,1.839081 1.89888,3.641708 2.92313,5.423008 2.10844,3.635249 4.37732,7.182801 6.7915,10.632079 2.74782,3.926035 5.61324,7.764463 8.59414,11.517305 3.60742,4.537692 7.41593,8.914959 11.42965,13.101894 2.51472,2.619563 5.03156,5.249805 7.53134,7.888525 1.51401,1.590957 3.20761,3.002324 5.03803,4.210524 2.28374,1.49681 4.6766,2.82049 7.15505,3.95602 1.89888,0.85743 3.84689,1.61449 5.83128,2.23882 1.13334,0.36613 2.3202,0.49383 3.50486,0.40249 1.46051,-0.12446 2.92959,-0.21175 4.3922,-0.26913 1.14829,-0.0404 2.2966,-0.13255 3.43851,-0.26105 0.31843,-0.0404 0.62474,-0.13255 0.90883,-0.27803 0.97509,-0.50674 1.93306,-1.05204 2.87179,-1.62086 0.76942,-0.46634 1.02433,-1.46908 0.56009,-2.2389 -0.0485,-0.0816 -0.10911,-0.1665 -0.17539,-0.23923 -0.35722,-0.40168 -0.65463,-0.85113 -0.88093,-1.33864 -0.9452,-2.02723 -2.36295,-3.793494 -4.14423,-5.147075 -5.11927,-3.904709 -10.76886,-7.052442 -16.77343,-9.366181 -1.52039,-0.588381 -3.09849,-1.017856 -4.70441,-1.280846 l -2.05074,-0.324901 -0.16648,-0.363695 -8.2092,-15.458387 -8.19431,-15.740695 -1.43909,-2.44418 c 2.35648,0.466329 4.68945,1.047841 6.99462,1.732068 3.08992,0.92379 6.18204,1.860418 9.26349,2.807724 l 3.4385,1.06061 3.71436,1.206097 2.80771,0.872458 2.64728,0.808287 5.48277,1.503272 c 6.41304,1.854039 13.08688,2.619573 19.74367,2.283844 2.05066,-0.111533 4.0437,-0.662729 5.84422,-1.623054 z"
       id="path11" />
  </g>
</svg>
